<svg xmlns="http://www.w3.org/2000/svg" version="1.1" xmlns:xlink="http://www.w3.org/1999/xlink" xmlns:svgjs="http://svgjs.dev/svgjs" width="100%" height="100%" viewBox="0 0 1000 600"><rect width="1000" height="600" x="0" y="0" fill="pink"/><g><circle r="166.66666666666666" cx="306.76931254069007" cy="328.99155351138825" fill="#b88746" transform="matrix(0.8922029504557325,0,0,0.8922029504557325,0,6.472773372305497)"/><path d="M353.0398984866599 322.6089028254403L352.62331447429005 337.78446327605735Q349.37991037798173 337.3381232628039 344.5891942357281 337.0405632539683Q339.7687220925909 336.7132472442491 334.17459392648107 336.47519923718056Q328.5804657603712 336.2073952292285 322.5697535818915 336.08837122569423Q316.5292854025283 335.99910322304356 310.9351572364185 335.8800792195093Q305.34102907030865 335.79081121685863 300.4908009262879 335.7312992150915Q295.61081678138356 335.67178721332436 292.36741268507524 335.67178721332436L292.36741268507524 335.67178721332436Q287.8742565516572 335.67178721332436 283.5001244217735 335.67178721332436Q279.09623629100616 335.67178721332436 274.6030801575882 335.8800792195093L274.6030801575882 335.8800792195093Q274.3947881514032 350.43076365157157 274.4840561540539 364.65413207391464Q274.6030801575882 378.8775004962577 274.6030801575882 393.51745293097065L274.6030801575882 393.51745293097065Q274.6030801575882 396.0467130060735 274.6030801575882 398.48670507852563Q274.6030801575882 400.95645315186135 274.8113721637731 403.5749812296149L274.8113721637731 403.5749812296149L249.0724313994912 403.9915652419848L246.5729273252719 253.99156478794424L366.9657069001674 254.82473281268398L366.5491228877975 281.39684160170566Q362.1452347570302 278.6592895204179 355.18233055027645 276.36807745238355Q348.24918234440634 274.07686538434916 339.97701409877584 272.23199332956824Q331.70484585314534 270.3871212747874 322.65902158454224 269.04810123502705Q313.61319731593915 267.6793251943832 305.043469061473 266.6973771652256Q296.44398480612335 265.68567313518446 288.9157165825819 265.0607971166296Q281.3874483590405 264.4359210980748 276.0611242008828 264.1383610892392L276.0611242008828 264.1383610892392Q275.4362481823279 279.61148154869187 275.1089321726087 294.93582200372674Q274.8113721637731 310.26016245876167 274.6030801575882 325.73328291821434L274.6030801575882 325.73328291821434L275.01966416995805 325.73328291821434Q279.72111230956097 325.73328291821434 286.05914049775987 325.6440149155637Q292.36741268507524 325.5249909120294 299.47909689624674 325.3166989058445Q306.59078110741825 325.10840689965954 314.0892933300761 324.8406028917075Q321.5580495518504 324.60255488463895 328.6697337630219 324.2157268731526Q335.78141797419346 323.8586548625499 342.05993416062523 323.50158285194715Q348.338450347057 323.1147548404608 353.0398984866599 322.6089028254403L353.0398984866599 322.6089028254403Z " fill="#191919" transform="matrix(0.8922029504557325,0,0,0.8922029504557325,0,6.472773372305497)"/><path d="M629.5323325694247 312.62089931961367L629.247625419319 322.9923740734659Q627.0309768934957 322.6873306983526 623.7568446672796 322.48396844827704Q620.4623762160559 322.260269973194 616.6391659146359 322.09758017313357Q612.8159556132159 321.9145541480656 608.7080381616901 321.83320924803536Q604.5797844851568 321.77220057301275 600.7565741837368 321.6908556729825Q596.9333638823167 321.6298469979598 593.6185592060855 321.5891745479447Q590.2834183048467 321.5485020979296 588.0667697790234 321.5485020979296L588.0667697790234 321.5485020979296Q584.9959998028828 321.5485020979296 582.0065747267724 321.5485020979296Q578.9968134256546 321.5485020979296 575.926043449514 321.6908556729825L575.926043449514 321.6908556729825Q575.7836898744612 331.6352697016761 575.8446985494838 341.3559852552866Q575.926043449514 351.0767008088971 575.926043449514 361.08212351261335L575.926043449514 361.08212351261335Q575.926043449514 362.8107026382554 575.926043449514 364.4782730888748Q575.926043449514 366.1661797645017 576.0683970245669 367.9557675651664L576.0683970245669 367.9557675651664L558.4775623930333 368.24047471527217L556.7693194923988 265.7255644521956L639.0496858729598 266.29497875240713L638.764978722854 284.4552276841523Q635.755217421736 282.58429498345737 630.9965407699685 281.01840565787575Q626.2582003432086 279.4525163322942 620.6047297911089 278.1916703818258Q614.951259239009 276.93082443135756 608.7690468367127 276.0156943060176Q602.5868344344165 275.0802279556702 596.7300016322412 274.4091325304209Q590.8528326050582 273.7177008801641 585.7077676781472 273.29064015500546Q580.5627027512362 272.8635794298468 576.9225184748841 272.66021717977134L576.9225184748841 272.66021717977134Q576.4954577497256 283.23505418369905 576.2717592746425 293.70821006258905Q576.0683970245669 304.18136594147904 575.926043449514 314.7562029454068L575.926043449514 314.7562029454068L576.2107505996198 314.7562029454068Q579.4238741508132 314.7562029454068 583.7554900774221 314.69519427038415Q588.0667697790234 314.61384937035393 592.9271275558287 314.47149579530105Q597.7874853326339 314.3291422202482 602.9122140345373 314.1461161951802Q608.0166065114333 313.98342639511975 612.8769642882385 313.7190554700216Q617.7373220650438 313.47502076993095 622.0282655416376 313.2309860698403Q626.3192090182313 312.9666151447421 629.5323325694247 312.62089931961367L629.5323325694247 312.62089931961367ZM712.6261479502878 368.5251818653779L694.6082525935956 367.67106041506065L696.3978403942602 360.16699338727346Q693.8761484933236 362.38364191309677 690.8460509671982 364.1732297137615Q687.8159534410727 365.9424812894186 684.5824936648717 367.20332723988696Q681.3693701136783 368.44383696534766 678.1969190125 369.1352686156045Q675.004131686314 369.8063640408538 672.3604224353321 369.8063640408538L672.3604224353321 369.8063640408538Q667.72376313361 369.8063640408538 662.7820604567745 368.44383696534766Q657.8606940049466 367.1016461148492 653.8544576784585 364.37659196383703Q649.8482213519706 361.65153781282487 647.2655207760113 357.5842928113142Q644.7031564250595 353.5170478098035 644.7031564250595 348.14828440780946L644.7031564250595 348.14828440780946Q644.7031564250595 341.15262300521107 647.1231672009584 335.9872218532925Q649.5635142018648 330.8421569263815 653.7324403284133 327.4866798001352Q657.9217026799693 324.1312026738889 663.5751732320691 322.52464089829215Q669.228643784169 320.9180791226955 675.736235786586 320.9180791226955L675.736235786586 320.9180791226955Q678.8070057627266 320.9180791226955 682.02012931392 321.4061485228768Q685.2332528651134 321.9145541480656 688.304022841254 322.9110291734357Q691.3747928173946 323.90750419880584 694.1811918684369 325.5547384244176Q696.9672546944716 327.20197265002946 699.183903220295 329.41862117585276L699.183903220295 329.41862117585276Q698.960204745212 325.5547384244176 698.1467557449098 321.2637949478239Q697.3129705196001 316.9728514712301 695.5640551689505 313.43434831991584Q693.815139818301 309.8958451686015 690.8867234172133 307.57751551774044Q687.9583070161256 305.25918586687936 683.4436650644487 305.25918586687936L683.4436650644487 305.25918586687936Q676.8750643870089 305.25918586687936 672.3400862103246 308.6553354431408Q667.7847718086326 312.0514850194022 666.0765289079982 318.4777321217891L666.0765289079982 318.4777321217891L647.4892192510944 316.5457907460715Q649.1974621517288 312.11249369442487 652.3495770278996 308.7163441181634Q655.5016919040704 305.320194541902 659.4672557805433 303.04253734105606Q663.4328196570162 300.74454391520254 667.9271253836855 299.56504286476445Q672.4417673353623 298.3855418143263 677.0174179620619 298.3855418143263L677.0174179620619 298.3855418143263Q684.0130793646603 298.3855418143263 689.5648687917223 300.3988280900741Q695.0963219937768 302.3917781408143 699.326256795348 305.88960884211355Q703.5358553719115 309.40777576842027 706.4642717729992 314.1461161951802Q709.3926881740869 318.9047928469477 711.2636208747817 324.37523737397953Q713.1142173504691 329.8456819010114 713.9683388007863 335.8245320532321Q714.8427964761111 341.78304598044525 714.8427964761111 347.72122368265076L714.8427964761111 347.72122368265076Q714.8427964761111 353.0086421846147 714.2530459508921 358.19437956154076Q713.6836316506806 363.38011693846687 712.6261479502878 368.5251818653779L712.6261479502878 368.5251818653779ZM698.3907904450004 347.43651653254506L698.3907904450004 347.43651653254506Q698.6144889200835 345.7892823069332 698.7161700451213 344.22339298135165Q698.8178511701591 342.6371674307624 698.960204745212 340.98993320515063L698.960204745212 340.98993320515063Q698.6144889200835 337.63445607890435 696.6012026443358 335.0314192779375Q694.6082525935956 332.4283824769707 691.7408448675305 330.59812222629085Q688.8734371414655 328.7678619756111 685.5179600152192 327.85273185027114Q682.1624828889728 326.9172654999237 678.9493593377795 326.9172654999237L678.9493593377795 326.9172654999237Q675.2278301613972 326.9172654999237 672.0147066102037 328.15777522538446Q668.7812468340028 329.41862117585276 666.4222447331265 331.6962783766988Q664.0632426322504 333.99427180255225 662.7210517817518 337.14638667872305Q661.3585247062458 340.2781653298863 661.3585247062458 344.08103940629877L661.3585247062458 344.08103940629877Q661.3585247062458 347.92458593272636 662.5380257566839 351.1173732589122Q663.7175268071219 354.28982436009056 665.8528304329151 356.6284902359592Q668.0084702837157 358.94681988682026 671.1199127098714 360.2280020622961Q674.2313551360271 361.509184237772 678.0952378874622 361.509184237772L678.0952378874622 361.509184237772Q681.5117236887311 361.509184237772 684.8061921399548 360.5127092124019Q688.1006605911784 359.5162341870318 690.8460509671982 357.68597393635196Q693.5914413432179 355.8760499106797 695.5640551689505 353.2526768847053Q697.5366689946832 350.64964008373846 698.3907904450004 347.43651653254506ZM745.1437717373657 302.9001837660032L745.5708324625243 313.61737434498383Q747.360420263189 310.89232019397167 749.7194223640652 308.4316369680577Q752.0784244649413 305.97095374214376 755.0475133160442 304.14069349146394Q758.016602167147 302.33076946579166 761.5551053184612 301.25294954039134Q765.0936084697755 300.175129614991 769.1608534712861 300.175129614991L769.1608534712861 300.175129614991Q774.4686081982576 300.175129614991 778.0274475745795 302.43245059082943Q781.6066231759089 304.6897715666679 783.8232717017322 308.32995584301995L783.8232717017322 308.32995584301995Q788.337913653409 304.1000210414488 794.0523928805314 301.5376566904971Q799.766872107654 298.9549561145378 805.7660584848823 298.9549561145378L805.7660584848823 298.9549561145378Q810.1383468615062 298.9549561145378 813.5344964377675 300.5005092151119Q816.930646014029 302.02572609067835 819.4726741399732 304.6490991166528Q821.9943660409099 307.25213591761957 823.7229451665519 310.6889579438961Q825.4311880671863 314.12577997017263 826.4683355425716 317.90831782157755Q827.5054830179567 321.6908556729825 827.9732161931306 325.59541087443273Q828.4409493683042 329.4796298508754 828.4409493683042 333.0588054522048L828.4409493683042 333.0588054522048Q828.4409493683042 337.06504177869283 827.9122075181078 342.33212405564916Q827.363129442904 347.57887010759794 826.3666544175337 353.0086421846147Q825.3701793921637 358.4384142616314 823.9669798666425 363.420789388482Q822.5841165661288 368.382828290325 820.8555374404868 371.73830541657134L820.8555374404868 371.73830541657134L801.3327614332356 369.9487176159066Q804.0578155842478 364.742644013973 806.2134554350484 358.6621127367145L806.2134554350484 358.6621127367145Q808.0640519107358 353.4357029097733 809.5689325612948 346.6840762072656Q811.0738132118537 339.93244950475787 811.0738132118537 332.34703757694047L811.0738132118537 332.34703757694047Q811.0738132118537 327.62903337518804 810.4840626866346 323.4804434736472Q809.9146483864231 319.3318535721063 808.3894315108566 316.3017560459809Q806.8438784102825 313.25132229484785 804.1594967092856 311.4820707191907Q801.4751150082884 309.692482918526 797.2655164317249 309.692482918526L797.2655164317249 309.692482918526Q794.255755130607 309.692482918526 791.5917096546175 310.9329926439868Q788.9073279536204 312.1938385944551 786.4059722776915 314.1867886451953L786.4059722776915 314.1867886451953Q787.5448008781144 317.6236106714718 788.0125340532882 321.304467397839Q788.4802672284619 324.98532412420616 788.4802672284619 328.56449972553554L788.4802672284619 328.56449972553554Q788.4802672284619 332.2046840018876 788.1142151783259 337.49210250385147Q787.74816312819 342.77952100581535 787.1584126029709 348.3313104328774Q786.5483258527443 353.8627636349319 785.7958855274649 358.86547498679005Q785.0434452021854 363.8681863386482 784.2503324268907 366.8779476397661L784.2503324268907 366.8779476397661L764.7275564196395 365.45441188923735Q766.6594977953571 360.2280020622961 768.1643784459161 354.086462110015L768.1643784459161 354.086462110015Q769.4455606213919 348.79904360805114 770.5640529968074 341.78304598044525Q771.6622091472152 334.78738457784686 771.6622091472152 326.7749119248708L771.6622091472152 326.7749119248708Q771.6622091472152 324.27355624894176 771.0724586219962 321.36547607286167Q770.4623718717696 318.4777321217891 769.0591723462484 316.0170488958751Q767.6763090457348 313.5360294449536 765.4189880698964 311.9091314443493Q763.161667094058 310.2618972187375 759.9485435428645 310.2618972187375L759.9485435428645 310.2618972187375Q757.8742485920941 310.2618972187375 755.9423072163764 311.4413982691756Q754.0103658406589 312.62089931961367 752.2207780399942 314.55284069533127Q750.4311902393295 316.4847820710488 748.8246284637328 319.00647397198543Q747.2180666881361 321.5485020979296 745.8555396126301 324.3345649239644L745.8555396126301 324.3345649239644L747.6451274132947 368.0981211402193L728.5697483562096 369.9487176159066L732.2709413075844 301.8833725156255L745.1437717373657 302.9001837660032ZM866.3273365573762 284.17052053404655L866.3273365573762 284.17052053404655Q866.3273365573762 286.73288488499827 865.3715339820212 289.0308783108518Q864.3953951816586 291.30853551169776 862.687152281024 293.01677841233226Q860.958573155382 294.74535753797426 858.6809159545362 295.7418325633444Q856.3829225286826 296.7383075887145 853.7392132777006 296.7383075887145L853.7392132777006 296.7383075887145Q851.0955040267188 296.7383075887145 848.7771743758576 295.7418325633444Q846.4588447249965 294.74535753797426 844.7302655993544 293.01677841233226Q843.02202269872 291.30853551169776 842.0255476733499 289.0308783108518Q841.0290726479798 286.73288488499827 841.0290726479798 284.17052053404655L841.0290726479798 284.17052053404655Q841.0290726479798 281.50647505805705 842.0255476733499 279.188145407196Q843.02202269872 276.8698157563349 844.7302655993544 275.1615728557004Q846.4588447249965 273.43299373005834 848.7771743758576 272.43651870468824Q851.0955040267188 271.44004367931814 853.7392132777006 271.44004367931814L853.7392132777006 271.44004367931814Q856.3829225286826 271.44004367931814 858.6809159545362 272.43651870468824Q860.958573155382 273.43299373005834 862.687152281024 275.1615728557004Q864.3953951816586 276.8698157563349 865.3715339820212 279.188145407196Q866.3273365573762 281.50647505805705 866.3273365573762 284.17052053404655ZM843.8151354740146 302.9001837660032L863.9073257814773 303.95766746639595L858.457217479453 372.73478044194144L844.6692569243319 371.3112446914127L843.8151354740146 302.9001837660032ZM877.6342776615759 255.9235039985549L898.29588226925 253.99156262283734L894.7777153429433 368.80988901548363L881.132108362875 369.9487176159066L877.6342776615759 255.9235039985549ZM960.6264119174011 302.9001837660032L979.7831358745163 302.1680796657312Q980.0068343495996 304.7507802416905 980.1898603746674 307.8215502178311Q980.3728863997355 310.89232019397167 980.4745675247732 314.0037626201273Q980.576248649811 317.115205046283 980.6575935498412 320.16563879741597Q980.7186022248638 323.19573632354144 980.7186022248638 325.7784368995007L980.7186022248638 325.7784368995007Q980.7186022248638 330.4964411012531 980.5152399747883 336.3126014534134Q980.2915414997052 342.1490980305812 979.6407822994636 348.53467268295293Q979.0103593242293 354.94058356033224 977.7901858237761 361.509184237772Q976.570012323323 368.0981211402193 974.6177347225978 374.2396610925004Q972.6451208968651 380.40153726978906 969.7777131708001 385.8313093468058Q966.9306416697427 391.2610814238226 962.9854140182774 395.3079902003257Q959.0605225918196 399.33456275182124 953.8747852148934 401.6528924026823Q948.6890478379673 403.99155827855094 942.0391022604974 403.99155827855094L942.0391022604974 403.99155827855094Q937.0363909086393 403.99155827855094 932.5014127319548 402.4053327279618Q927.9664345552704 400.8394434023802 924.2042329288731 398.0127081263303Q920.4420313024757 395.1859728502804 917.6356322514333 391.2610814238226Q914.8088969753834 387.3361899973648 913.2226714247943 382.6181857956124L913.2226714247943 382.6181857956124L935.4705015830576 376.88337034348234Q935.3281480080047 377.7578280188071 935.3281480080047 378.7136305941621Q935.3281480080047 379.66943316951716 935.3281480080047 380.6862444198948L935.3281480080047 380.6862444198948Q935.3281480080047 382.9639016207408 935.673863833133 385.89231802182843Q936.039915883269 388.82073442291613 937.1177358086694 391.4034349988754Q938.1752195090622 393.9861355748347 940.18850578481 395.75538715049186Q942.1814558355502 397.5449749511566 945.3945793867437 397.5449749511566L945.3945793867437 397.5449749511566Q948.7703927379976 397.5449749511566 951.3327570889493 395.12496417525773Q953.9154576649086 392.68461717435133 955.806726590611 388.82073442291613Q957.6979955163134 384.9771878964886 958.9588414667818 380.11683011968336Q960.1993511922425 375.2361361178705 961.0331364175522 370.3554421160577Q961.8465854178544 365.45441188923735 962.2126374679904 360.9804423875756Q962.5583532931187 356.50647288591387 962.7007068681717 353.4357029097733L962.7007068681717 353.4357029097733Q960.9924639675371 357.2995856612085 958.5317807416232 360.5940541124321Q956.0507612907016 363.8681863386482 952.8783101895233 366.26786088953946Q949.6855228633374 368.66753544043075 945.8419763369097 369.9893900659217Q941.9780935854748 371.3112446914127 937.4024429587753 371.3112446914127L937.4024429587753 371.3112446914127Q930.2440917561164 371.3112446914127 925.2413804042583 368.0981211402193Q920.2386690524002 364.88499758902583 917.1272266262445 359.61791531206956Q914.0157842000888 354.3711692601208 912.59224844956 347.61954255761304Q911.1483764740237 340.84757963009775 911.1483764740237 333.8519182274994L911.1483764740237 333.8519182274994Q911.1483764740237 325.8394455745234 912.4498948745072 319.3725260221214Q913.731077049983 312.90560646971943 915.3783112755949 308.18760226796707L915.3783112755949 308.18760226796707Q917.2289077512822 302.6764852909201 919.6692547521886 298.3855418143263L919.6692547521886 298.3855418143263L938.6836251342511 303.1035460160787Q932.7454474320455 313.61737434498383 930.2034193061013 322.52464089829215Q927.6817274051647 331.411571226593 927.6817274051647 339.85110460472765L927.6817274051647 339.85110460472765Q927.6817274051647 343.3489353060268 928.576521305497 347.2941629574922Q929.4509789808219 351.21905438395 931.4235928065546 354.55419528518877Q933.3962066322872 357.86899996141995 936.4669766084278 360.04497603722814Q939.5377465845684 362.2412883380439 943.971043636215 362.2412883380439L943.971043636215 362.2412883380439Q947.8349263876501 362.2412883380439 950.8040152387528 360.04497603722814Q953.7731040898557 357.86899996141995 956.0304250656941 354.4118417101359Q958.267409816525 350.9343472338442 959.8536353671141 346.6840762072656Q961.4195246926957 342.43380518068693 962.4159997180659 338.2038703791158L962.4159997180659 338.2038703791158Q962.4159997180659 334.1366253776052 962.3753272680508 329.52030230089053Q962.3549910430431 324.90397922417594 962.2126374679904 320.22664747243863Q962.0702838929374 315.5493157207014 961.6635593927863 311.07534621903966Q961.2771711176429 306.6013767173779 960.6264119174011 302.9001837660032L960.6264119174011 302.9001837660032Z " fill="#b88746" transform="matrix(0.8922029504557325,0,0,0.8922029504557325,0,6.472773372305497)"/></g></svg>